<?xml version="1.0" encoding="UTF-8" standalone="no"?>
<!-- Created with Inkscape (http://www.inkscape.org/) -->

<svg
   width="54.145664mm"
   height="54.145664mm"
   viewBox="0 0 54.145665 54.145664"
   version="1.1"
   id="svg5"
   xmlns="http://www.w3.org/2000/svg"
   xmlns:svg="http://www.w3.org/2000/svg">
  <path
     style="opacity:1;fill:#6c54d1;fill-opacity:1;stroke:#6e56cf;stroke-width:1.05833;stroke-miterlimit:4;stroke-dasharray:none;stroke-opacity:1"
     d="M 19.468445,50.006422 C 18.20861,48.838845 17.129239,45.433599 16.760127,41.4621 c -0.09536,-1.026009 -0.25474,-1.99712 -0.354184,-2.158023 -0.131935,-0.213477 -0.926829,-0.21105 -2.940788,0.009 -3.111785,0.339961 -6.3891647,0.175498 -7.7385977,-0.388332 -2.9832721,-1.246489 -2.160482,-4.385537 2.409241,-9.19155 L 10.621048,27.119442 8.6018373,24.933656 c -3.899055,-4.220713 -5.290196,-6.965408 -4.386368,-8.654227 0.60329,-1.127258 2.48252,-1.708859 5.563664,-1.721893 1.5279687,-0.0065 3.6389087,0.07815 4.6909757,0.188032 1.84761,0.192971 1.91681,0.179435 2.028956,-0.396875 0.06386,-0.328163 0.313087,-1.895321 0.55384,-3.482574 0.5342,-3.5219003 1.266817,-5.5692813 2.399342,-6.7052313 2.004552,-2.010615 4.58248,-0.362591 8.267451,5.285233 0.828472,1.2697693 1.650916,2.3115663 1.827655,2.3151043 0.176739,0.0035 1.199406,-0.526653 2.272606,-1.178204 3.16753,-1.9230523 5.43525,-2.8797013 7.11415,-3.0011423 1.3969,-0.101043 1.5767,-0.04826 2.30031,0.675358 0.44829,0.448294 0.86552,1.21436 0.97278,1.7861123 0.25024,1.333858 -0.26961,4.154097 -1.38403,7.508469 -0.50093,1.507797 -0.87444,2.76778 -0.83001,2.799961 0.0444,0.03218 0.85468,0.335084 1.80056,0.673118 3.17065,1.133108 6.081,2.653681 7.28243,3.804857 0.98118,0.940136 1.18423,1.301125 1.18423,2.105329 0,1.930958 -3.02558,4.13738 -8.06978,5.884929 -1.16417,0.403323 -2.15579,0.762143 -2.2036,0.797377 -0.0478,0.03524 0.32933,1.354479 0.83811,2.931647 1.71343,5.311534 1.85832,7.858839 0.52295,9.194207 -1.39565,1.395656 -4.51833,0.684602 -9.08575,-2.068885 -1.3499,-0.81379 -2.585292,-1.47378 -2.745328,-1.466644 -0.160036,0.0071 -0.939109,1.037288 -1.73128,2.289228 -1.600126,2.528829 -3.941302,5.198406 -5.071454,5.782828 -1.141503,0.590296 -2.431123,0.481701 -3.245802,-0.273317 z m 3.166856,-0.947301 c 1.346594,-0.832241 5.664666,-6.580745 5.664666,-7.54118 0,-0.181579 -1.034378,-1.070028 -2.298616,-1.974326 -2.556864,-1.828909 -2.27177,-1.783035 -6.49878,-1.045697 l -1.785938,0.311531 v 1.128805 c 0,0.620845 0.175063,2.12667 0.389029,3.346278 1.017249,5.798349 2.151509,7.244355 4.529639,5.774589 z m 18.031208,-4.02014 c 0.49795,-0.632206 0.60655,-1.79629 0.3294,-3.531126 -0.32986,-2.064864 -1.76751,-6.728037 -2.20378,-7.148177 -0.22542,-0.217088 -1.03584,-0.08664 -3.08586,0.496719 l -2.78016,0.791125 -1.39618,2.622595 c -0.7679,1.442429 -1.329198,2.730973 -1.247336,2.863432 0.255989,0.414197 4.564016,2.921547 6.155986,3.582892 1.65074,0.685763 3.81197,0.850641 4.22793,0.32254 z M 30.41631,38.132261 c 0.505759,-0.946597 0.849639,-1.791015 0.764169,-1.876481 -0.0855,-0.08546 -1.215029,0.09132 -2.510141,0.392856 -3.079154,0.71691 -3.280788,0.780431 -3.280788,1.033553 0,0.430297 3.523692,2.655427 3.818133,2.411063 0.158986,-0.131945 0.702868,-1.014391 1.208627,-1.960991 z m -15.247055,-0.08518 1.289081,-0.162444 -0.162302,-1.35069 c -0.08927,-0.742883 -0.174373,-2.124601 -0.189127,-3.070486 l -0.02683,-1.719792 -2.210569,-1.918229 c -1.215811,-1.055026 -2.316997,-1.918229 -2.447077,-1.918229 -0.623617,0 -4.9612357,5.048403 -5.8447307,6.802479 -1.055269,2.095111 -0.558497,3.106524 1.729001,3.520192 1.26443,0.228658 5.3514487,0.133633 7.8625497,-0.182806 z m 4.796337,-0.703287 c 1.018645,-0.176265 1.852083,-0.449148 1.852083,-0.606409 0,-0.346694 -3.967519,-3.538503 -4.398472,-3.538503 -0.213271,0 -0.255095,0.419177 -0.138598,1.389063 0.09176,0.763984 0.16788,1.776015 0.169145,2.248958 0.0026,0.969005 -0.07008,0.95436 2.515842,0.506891 z m 8.047122,-1.632717 c 2.243105,-0.507899 4.107215,-0.9535 4.142465,-0.990222 0.0353,-0.03672 0.90327,-1.766614 1.92893,-3.844207 l 1.86483,-3.777441 -1.14076,-2.440268 c -0.62743,-1.342146 -1.47145,-3.106869 -1.87561,-3.921609 l -0.73484,-1.481346 -1.882735,-0.438886 C 29.279488,18.575711 27.388207,18.152274 26.112143,17.876131 L 23.79203,17.374053 21.87881,18.85618 c -1.05227,0.815168 -2.538296,2.008968 -3.302281,2.652887 l -1.389062,1.170763 0.0064,4.399629 0.0064,4.399632 3.234737,2.574313 c 1.779105,1.415873 3.294268,2.575846 3.367028,2.577719 0.07276,0.0019 1.967561,-0.412146 4.210664,-0.920046 z m 8.357045,-2.129634 c 0.87313,-0.242631 1.67775,-0.524163 1.78805,-0.625631 0.20777,-0.191127 -0.95805,-3.323254 -1.4693,-3.947459 -0.22532,-0.275114 -0.57045,0.19689 -1.5477,2.116667 -1.38312,2.717099 -1.52418,3.237783 -0.82157,3.032712 0.25466,-0.07433 1.1774,-0.333658 2.05052,-0.576289 z m 5.73892,-1.86681 c 2.68532,-0.958741 5.94669,-2.685587 6.57096,-3.47922 1.01894,-1.295382 0.66298,-2.194544 -1.39551,-3.525012 -1.70717,-1.103397 -6.87104,-3.234828 -7.51678,-3.10261 -0.4371,0.0895 -2.4464,4.502121 -2.4619,5.406607 -0.005,0.309313 0.28476,1.2281 0.64459,2.041744 0.35984,0.813644 0.83001,1.900023 1.04484,2.414172 0.21482,0.514149 0.56816,0.934818 0.7852,0.934818 0.21703,0 1.2649,-0.310724 2.3286,-0.690499 z M 16.129133,27.113461 c 0,-2.400557 -0.06899,-2.910417 -0.393802,-2.910417 -0.442754,0 -3.25516,2.370931 -3.288721,2.772476 -0.02866,0.342837 2.927456,3.020613 3.351794,3.036205 0.245276,0.009 0.330729,-0.739839 0.330729,-2.898264 z m -2.273777,-2.950581 2.202647,-1.892247 0.144337,-2.936399 c 0.07939,-1.615019 0.06299,-3.022372 -0.03643,-3.127451 -0.09942,-0.105079 -1.606883,-0.321017 -3.349917,-0.479856 -3.4766027,-0.31682 -6.0415397,-0.07179 -7.2010027,0.687921 -1.437659,0.941991 -0.158313,3.657849 3.552959,7.542393 1.1023697,1.153837 2.1124087,2.097886 2.2445317,2.097886 0.132123,0 1.231416,-0.851511 2.442871,-1.892247 z m 23.691203,-0.893572 c 0.45611,-1.095637 0.77113,-2.086181 0.70004,-2.201211 -0.16892,-0.273312 -4.06858,-1.243804 -4.25377,-1.058617 -0.19157,0.191577 2.21855,5.251897 2.50137,5.251897 0.12268,0 0.59624,-0.896432 1.05236,-1.992069 z M 20.296321,18.816413 c 0.909505,-0.727599 1.653646,-1.412581 1.653646,-1.522185 0,-0.109601 -0.20836,-0.260651 -0.463021,-0.335669 -0.778877,-0.229438 -3.8206,-0.731549 -3.898214,-0.643493 -0.04013,0.04552 -0.159337,1.146458 -0.264914,2.44652 l -0.191959,2.363753 0.755408,-0.493011 c 0.415475,-0.271156 1.499549,-1.088319 2.409054,-1.815915 z m 18.925338,0.16111 c 1.36165,-3.413265 2.18226,-7.561833 1.7865,-9.0315683 -0.41018,-1.523286 -1.552,-1.758232 -4.03316,-0.829885 -1.69544,0.634363 -6.333409,3.2575403 -6.651684,3.7621133 -0.154218,0.244486 0.233248,1.1936 1.189044,2.912603 l 1.41782,2.549938 2.64583,0.781632 c 1.45521,0.429895 2.78174,0.796417 2.94784,0.814493 0.1661,0.01807 0.48011,-0.413623 0.69781,-0.959326 z m -8.01128,-1.354193 c 0,-0.457441 -1.957677,-3.739036 -2.230568,-3.739036 -0.469585,0 -3.59722,2.228083 -3.50711,2.498416 0.04636,0.139086 1.207478,0.513114 2.580261,0.831177 2.948067,0.683041 3.157417,0.71019 3.157417,0.409443 z m -5.405267,-2.988908 c 1.254197,-0.897117 2.344577,-1.798473 2.423065,-2.003011 0.208045,-0.542158 -3.101268,-5.2974563 -4.813673,-6.9169763 -1.241117,-1.173797 -1.600682,-1.375612 -2.326182,-1.305628 -0.746313,0.07199 -0.953019,0.272422 -1.58614,1.537987 -0.826917,1.652952 -1.431504,4.2291633 -1.683214,7.1723673 l -0.172157,2.012993 2.614599,0.453252 c 1.438029,0.249291 2.733661,0.494903 2.879182,0.545809 0.14552,0.0509 0.291488,0.101952 0.324373,0.11344 0.03288,0.01148 1.085951,-0.713115 2.340147,-1.610233 z"
     id="path1834" />
  <defs
     id="defs52393" />
</svg>
